<svg xmlns="http://www.w3.org/2000/svg" width="30" height="21.429" viewBox="0 0 30 21.429">
  <path id="quote-right" d="M30,109.393a8.033,8.033,0,0,1-8.036,8.036h-.536a2.143,2.143,0,1,1,0-4.286h.536a3.752,3.752,0,0,0,3.75-3.75v-.536H21.429a4.29,4.29,0,0,1-4.286-4.286v-4.286A4.29,4.29,0,0,1,21.429,96h4.286A4.29,4.29,0,0,1,30,100.286v9.107Zm-17.143,0a8.033,8.033,0,0,1-8.036,8.036H4.286a2.143,2.143,0,1,1,0-4.286h.536a3.752,3.752,0,0,0,3.75-3.75v-.536H4.286A4.29,4.29,0,0,1,0,104.571v-4.286A4.29,4.29,0,0,1,4.286,96H8.571a4.29,4.29,0,0,1,4.286,4.286v9.107Z" transform="translate(0 -96)" fill="#5372f0"/>
</svg>
